<svg id="Layer_1" data-name="Layer 1" xmlns="http://www.w3.org/2000/svg" xmlns:xlink="http://www.w3.org/1999/xlink" viewBox="0 0 459.08 327.32"><defs><style>.cls-1{fill:#f1f2f2;}.cls-2{fill:url(#linear-gradient);}.cls-3,.cls-4{fill:none;stroke-miterlimit:10;}.cls-3{stroke:#1000bf;}.cls-4{stroke:#1049bf;}</style><linearGradient id="linear-gradient" x1="148.96" y1="214.34" x2="332.85" y2="214.34" gradientUnits="userSpaceOnUse"><stop offset="0" stop-color="#0006fb"/><stop offset="1" stop-color="#00e693"/></linearGradient></defs><path class="cls-1" d="M476.66,283.06a1.68,1.68,0,0,1,0,2.91l-13,7.57L327.08,373.09a1.69,1.69,0,0,1-1.67,0L248,329.39a1.69,1.69,0,0,0-1.67,0L188.55,363a1.69,1.69,0,0,1-1.67,0L110,319.65l-9.33-5.28a1.69,1.69,0,0,0-1.67,0l-10.88,6.34a1.69,1.69,0,0,1-1.67,0L19.29,282.83a1.69,1.69,0,0,1,0-2.92l10-5.82L86.14,241a1.68,1.68,0,0,0,0-2.91L56.24,221.2l-10-5.62a1.68,1.68,0,0,1,0-2.91L178.1,135.26a1.69,1.69,0,0,0,0-2.92l-21.62-12.2a1.68,1.68,0,0,1,0-2.91l12.93-7.59,51.49-30.23a1.68,1.68,0,0,1,1.68,0L248.39,94l12.5,7.06a1.68,1.68,0,0,0,1.68,0l24.64-14.35,4.23-2.47a1.69,1.69,0,0,1,1.67,0l31.6,17.84,68,38.37a1.68,1.68,0,0,1,0,2.91h0a1.69,1.69,0,0,0,0,2.92l7.62,4.3L475.54,193a1.68,1.68,0,0,1,0,2.91l-23,13.37-50,29.11a1.69,1.69,0,0,0,0,2.92Z" transform="translate(-18.43 -46)"/><path class="cls-1" d="M348.39,78.35l19.28-10.5s2.79-3.22,8.14,0S409.46,86.7,409.46,86.7s3.21,3.86,0,6.22-34.93,19.5-34.93,19.5a4.49,4.49,0,0,1-4.74,0C367,110.94,335,92.06,335,92.06s-3.77-2.41,0-5.7S348.39,78.35,348.39,78.35Z" transform="translate(-18.43 -46)"/><path class="cls-1" d="M295.9,55l12.79-7s1.85-2.13,5.4,0,22.3,12.5,22.3,12.5,2.13,2.56,0,4.12-23.16,12.93-23.16,12.93a3,3,0,0,1-3.14,0c-1.86-1-23.07-13.5-23.07-13.5s-2.5-1.6,0-3.78S295.9,55,295.9,55Z" transform="translate(-18.43 -46)"/><path class="cls-1" d="M75.44,114.62l16.38-8.92s2.37-2.73,6.92,0,28.59,16,28.59,16,2.74,3.28,0,5.28-29.68,16.58-29.68,16.58a3.82,3.82,0,0,1-4,0c-2.39-1.26-29.57-17.3-29.57-17.3s-3.21-2,0-4.85S75.44,114.62,75.44,114.62Z" transform="translate(-18.43 -46)"/><path class="cls-1" d="M34.13,150.74l10.69-5.82s1.55-1.78,4.52,0S68,155.38,68,155.38s1.78,2.14,0,3.44-19.37,10.81-19.37,10.81a2.46,2.46,0,0,1-2.62,0c-1.56-.82-19.29-11.28-19.29-11.28s-2.09-1.34,0-3.17S34.13,150.74,34.13,150.74Z" transform="translate(-18.43 -46)"/><path class="cls-1" d="M234.74,49.84l7.4-3.38s1.07-1,3.12,0,12.91,6.07,12.91,6.07,1.23,1.24,0,2-13.4,6.27-13.4,6.27a2,2,0,0,1-1.82,0c-1.08-.47-13.34-6.55-13.34-6.55s-1.45-.78,0-1.84A34.88,34.88,0,0,1,234.74,49.84Z" transform="translate(-18.43 -46)"/><path class="cls-1" d="M97.33,74.35l7.4-3.38s1.07-1,3.12,0S120.75,77,120.75,77s1.24,1.24,0,2-13.39,6.28-13.39,6.28a2,2,0,0,1-1.82,0c-1.08-.48-13.35-6.55-13.35-6.55s-1.44-.78,0-1.84A35.22,35.22,0,0,1,97.33,74.35Z" transform="translate(-18.43 -46)"/><path class="cls-1" d="M167.15,61.27l3-1.39a1.13,1.13,0,0,1,1.29,0c.85.43,5.32,2.5,5.32,2.5s.51.51,0,.83-5.52,2.58-5.52,2.58a.81.81,0,0,1-.75,0c-.45-.19-5.5-2.7-5.5-2.7s-.6-.32,0-.75A14.55,14.55,0,0,1,167.15,61.27Z" transform="translate(-18.43 -46)"/><path class="cls-2" d="M261.56,172.13l-14.3-8a11.8,11.8,0,0,0-12.38-1c-7,3.46-25.87,14.79-25.87,14.79L151.58,210s-4.24,2.68-1.93,7.07,57.27,33.59,57.27,33.59L234,265.75s5.88,2.17,9.73.45,86.36-46.82,86.36-46.82,5.14-3.1,1.29-7.5S261.56,172.13,261.56,172.13Z" transform="translate(-18.43 -46)"/><path class="cls-3" d="M342.67,214.81a16.33,16.33,0,0,1-2.81,9.72l-5.95,4.85s-30.21,16.54-54.88,30c-14.88,8.09-27.75,15-30.73,16.54-7.92,4-16.6,0-16.6,0s-13.69-7.09-30.38-16.09c-23.78-12.82-53.67-29.52-58.77-35.13-8.67-9.53,0-17.67,0-17.67s84.17-49.4,91.08-52.13,16.23.8,16.23.8l7.55,4.29,60.66,32.15,8.77,4.65a61.46,61.46,0,0,1,5.71,3.35c3.12,2.06,4.68,3.1,6.1,4.74A17.25,17.25,0,0,1,342.67,214.81Z" transform="translate(-18.43 -46)"/><path class="cls-3" d="M330.22,148.76,344.84,141s4-2.41,7.24,0,50.3,26.84,50.3,26.84,7.07,4,1.13,7.88S380,189.26,380,189.26s-3.37,1.77-8.52-.81-51.1-28.12-51.1-28.12-3.06-3.84,1-6.5A98.56,98.56,0,0,1,330.22,148.76Z" transform="translate(-18.43 -46)"/><path class="cls-3" d="M197,294.24c-2,1.32-5,3.15-8.34,5.14-9.38,5.58-21.46,12.37-21.46,12.37s-4.29,2.3-10.82-1-64.91-36.49-64.91-36.49-3.88-5,1.22-8.43a121.41,121.41,0,0,1,11.23-6.58l18.57-10s5.11-3.13,9.19,0S195.57,284,195.57,284,204.56,289.23,197,294.24Z" transform="translate(-18.43 -46)"/><path class="cls-4" d="M332.85,270.42l14.65-8.36s5.06-3,9.32-.48l32,18.72s7.31,4.1.88,8.76-29.89,18.32-29.89,18.32-4.58,3.46-9.08.81-18.8-11-18.8-11L318,287.94s-3.3-3.54,0-6.83S332.85,270.42,332.85,270.42Z" transform="translate(-18.43 -46)"/><path class="cls-3" d="M188.66,299.38a58,58,0,0,0,6.93,5c3.21,1.71,4.44,0,4.44,0s19-11.57,22-13.93,0-5,0-5S200.09,273,195,270s0-6.33,0-6.33l6.37-3.87" transform="translate(-18.43 -46)"/><path class="cls-3" d="M279,259.34l17,10.27s5.15,3.22,10,0,11.25-6.91,11.25-6.91,4.5-1.29,7.07.16a67.35,67.35,0,0,1,6,4" transform="translate(-18.43 -46)"/><polyline class="cls-3" points="299.64 146.11 330.39 130.08 330.4 130.08"/></svg>